<?xml version="1.0" encoding="UTF-8" standalone="no"?>
<svg
   id="Ebene_1"
   version="1.1"
   viewBox="0 0 541.17744 188.53"
   sodipodi:docname="StackWarp_Logo_Logo_vertical_dark.svg"
   width="541.17743"
   height="188.53"
   inkscape:version="1.4.2 (ebf0e940d0, 2025-05-08)"
   xmlns:inkscape="http://www.inkscape.org/namespaces/inkscape"
   xmlns:sodipodi="http://sodipodi.sourceforge.net/DTD/sodipodi-0.dtd"
   xmlns="http://www.w3.org/2000/svg"
   xmlns:svg="http://www.w3.org/2000/svg">
  <sodipodi:namedview
     id="namedview16"
     pagecolor="#ffffff"
     bordercolor="#000000"
     borderopacity="0.25"
     inkscape:showpageshadow="2"
     inkscape:pageopacity="0.0"
     inkscape:pagecheckerboard="0"
     inkscape:deskcolor="#d1d1d1"
     inkscape:zoom="0.31400967"
     inkscape:cx="267.50769"
     inkscape:cy="84.392306"
     inkscape:window-width="2560"
     inkscape:window-height="1440"
     inkscape:window-x="0"
     inkscape:window-y="0"
     inkscape:window-maximized="0"
     inkscape:current-layer="Ebene_1" />
  <!-- Generator: Adobe Illustrator 30.0.0, SVG Export Plug-In . SVG Version: 2.1.1 Build 123)  -->
  <defs
     id="defs1">
    <style
       id="style1">
      .st0 {
        fill: #b8cc10;
      }

      .st1 {
        fill: #102a63;
      }

      .st2 {
        fill: #b9ce00;
      }
    </style>
  </defs>
  <polygon
     class="st1"
     points="161.58,211.14 226.28,246.78 346.27,179.52 348.51,183.53 227.41,251.41 225.18,251.42 159.36,215.16 "
     id="polygon1"
     transform="translate(-83.2426,-114.54)" />
  <polygon
     class="st2"
     points="112.43,202.66 226.28,264.12 289.25,229.77 291.45,233.8 227.39,268.74 225.2,268.75 110.25,206.7 "
     id="polygon2"
     transform="translate(-83.2426,-114.54)" />
  <polygon
     class="st1"
     points="135.89,237.64 138.09,233.61 226.48,281.81 314.9,233.61 317.1,237.64 227.58,286.44 225.38,286.44 "
     id="polygon3"
     transform="translate(-83.2426,-114.54)" />
  <polygon
     class="st1"
     points="134.34,179.5 226.18,228.51 301.99,187.15 304.19,191.18 227.29,233.14 225.11,233.15 132.18,183.55 "
     id="polygon4"
     transform="translate(-83.2426,-114.54)" />
  <path
     class="st1"
     d="M 233.5674,48.64 144.0474,0 h -2.19 l -89.48,48.64 v 4.03 c 0,0 89.48,48.8 89.48,48.8 h 2.2 l 89.52,-48.8 v -4.03 z m -47.22,24.55 -20.68,-11.67 V 45.86 c 3.37,-0.89 5.83,-3.67 5.83,-6.96 0,-4 -3.65,-7.26 -8.13,-7.26 -4.48,0 -8.13,3.25 -8.13,7.26 0,3.29 2.47,6.07 5.83,6.96 v 17 l 1.17,2 19.35,10.92 -19.96,10.88 -14.55,-7.93 c 0.65,-1.04 1.03,-2.24 1.03,-3.52 0,-4 -3.65,-7.26 -8.13,-7.26 -4.48,0 -8.13,3.26 -8.13,7.26 0,4 3.65,7.26 8.13,7.26 1.15,0 2.25,-0.22 3.25,-0.61 l 13.61,7.42 -13.89,7.57 -38.41,-20.94 33,-18.99 c 1.27,0.74 2.78,1.17 4.4,1.17 4.48,0 8.13,-3.25 8.13,-7.26 0,-4.01 -3.65,-7.26 -8.13,-7.26 -4.48,0 -8.13,3.26 -8.13,7.26 0,0.92 0.2,1.8 0.56,2.62 l -34.56,19.89 -28.49,-15.54 16.32,-8.27 13.72,-1.54 c 1.21,2.65 4.12,4.53 7.53,4.53 4.48,0 8.13,-3.25 8.13,-7.26 0,-4.01 -3.65,-7.26 -8.13,-7.26 -3.76,0 -6.92,2.3 -7.85,5.4 l -14.33,1.61 -0.78,0.23 -19.51,9.88 -8.18,-4.46 84.68,-46.03 15.04,8.17 -21.34,11.51 c -1.32,-0.82 -2.92,-1.31 -4.65,-1.31 -4.48,0 -8.13,3.25 -8.13,7.26 0,4.01 3.65,7.26 8.13,7.26 4.48,0 8.13,-3.25 8.13,-7.26 0,-0.83 -0.16,-1.62 -0.45,-2.37 l 23.05,-12.43 -0.07,-0.13 42.94,23.33 -13.54,7.3 c -1.28,-0.7 -2.73,-1.09 -4.25,-1.09 -4.48,0 -8.13,3.25 -8.13,7.26 0,4.01 3.65,7.26 8.13,7.26 4.48,0 8.13,-3.25 8.13,-7.26 0,-0.94 -0.21,-1.86 -0.6,-2.71 l 15.08,-8.13 17.25,9.37 -41.32,22.53 z m -22.97,-31.62 c -1.92,0 -3.54,-1.22 -3.54,-2.67 0,-1.45 1.62,-2.67 3.54,-2.67 1.92,0 3.54,1.22 3.54,2.67 0,1.45 -1.62,2.67 -3.54,2.67 z m -23.39,36.3 c -1.92,0 -3.54,-1.22 -3.54,-2.67 0,-1.45 1.62,-2.67 3.54,-2.67 1.92,0 3.54,1.22 3.54,2.67 0,1.45 -1.62,2.67 -3.54,2.67 z m -1.57,-27.05 c 0,-1.45 1.62,-2.67 3.54,-2.67 1.92,0 3.54,1.22 3.54,2.67 0,1.45 -1.62,2.67 -3.54,2.67 -1.92,0 -3.54,-1.22 -3.54,-2.67 z m -33.04,-5.57 c 0,-1.45 1.62,-2.67 3.54,-2.67 1.92,0 3.54,1.22 3.54,2.67 0,1.45 -1.62,2.67 -3.54,2.67 -1.92,0 -3.54,-1.22 -3.54,-2.67 z m 30.17,-14.99 c 0,1.45 -1.62,2.67 -3.54,2.67 -1.92,0 -3.54,-1.22 -3.54,-2.67 0,-1.45 1.62,-2.67 3.54,-2.67 1.92,0 3.54,1.22 3.54,2.67 z m 55.8,21.88 c 0,1.45 -1.62,2.67 -3.54,2.67 -1.92,0 -3.54,-1.22 -3.54,-2.67 0,-1.45 1.62,-2.67 3.54,-2.67 0.83,0 1.61,0.22 2.26,0.62 0.81,0.52 1.28,1.26 1.28,2.04 z"
     id="path4" />
  <path
     class="st1"
     d="m 144.3374,188.53 h -2.2 l -89.39,-48.75 c 0,0 -0.05,-0.03 -0.08,-0.04 h -0.01 c 0,0 1.09,-2.03 1.09,-2.03 l -0.66,-0.35 0.66,0.35 1.09,-2.02 c 0.1,0.05 0.2,0.11 0.29,0.16 l 1.06,0.57 v 0 c 0,0 87.05,47.48 87.05,47.48 l 88.42,-48.2 2.2,4.03 z"
     id="path5" />
  <path
     class="st2"
     d="m 29.6874,80.26 -4.47,-0.62 -1.36,-28.21 -11.02,4.17 -3.1099995,-2.13 -0.36,-41.46 1.5399995,-2.19 19.74,-6.84 3.01,2.59 -4.92,26.02 15.29,-5.61 2.97,2.89 -17.3,51.39 z m -4.5,-34.23 3.1,2.04 0.93,19.21 11.9,-35.33 -14.59,5.36 -3.05,-2.58 4.94,-26.1 -14.44,5 0.32,36.52 10.9,-4.12 z"
     id="path6" />
  <rect
     class="st2"
     x="-68.628006"
     y="38.731766"
     width="4.5900002"
     height="17.48"
     transform="rotate(-62.07)"
     id="rect6" />
  <rect
     class="st2"
     x="-45.236462"
     y="90.651047"
     width="17.620001"
     height="4.5900002"
     transform="rotate(-26.52)"
     id="rect7" />
  <rect
     class="st2"
     x="24.2174"
     y="100.85999"
     width="4.5900002"
     height="17.24"
     id="rect8" />
  <g
     id="g16"
     transform="translate(-83.2426,-114.54)">
    <path
       class="st1"
       d="m 344.75,239.3 c 0.56,2.18 1.43,3.83 2.59,4.96 1.16,1.13 2.72,1.69 4.67,1.69 1.95,0 3.63,-0.66 4.81,-1.97 1.18,-1.31 1.77,-3.15 1.77,-5.52 0,-1.65 -0.5,-3.05 -1.49,-4.2 -1,-1.14 -2.3,-1.92 -3.91,-2.34 l -3.44,-0.9 c -3.34,-0.86 -5.88,-2.37 -7.6,-4.53 -1.73,-2.16 -2.59,-4.96 -2.59,-8.42 0,-2.74 0.53,-5.1 1.58,-7.07 1.05,-1.97 2.55,-3.49 4.51,-4.56 1.95,-1.07 4.26,-1.61 6.93,-1.61 2.67,0 4.83,0.54 6.73,1.63 1.9,1.09 3.37,2.64 4.42,4.65 1.05,2.01 1.63,4.42 1.75,7.24 h -5.58 c -0.6,-2.55 -1.47,-4.49 -2.62,-5.8 -1.15,-1.31 -2.71,-1.97 -4.7,-1.97 -2.18,0 -3.88,0.66 -5.1,1.97 -1.22,1.31 -1.83,3.15 -1.83,5.52 0,1.65 0.49,3.07 1.46,4.25 0.98,1.18 2.27,1.98 3.89,2.39 l 3.44,0.9 c 3.38,0.86 5.93,2.38 7.66,4.53 1.73,2.16 2.59,4.93 2.59,8.31 0,2.74 -0.52,5.1 -1.55,7.07 -1.03,1.97 -2.5,3.49 -4.39,4.56 -1.9,1.07 -4.14,1.61 -6.73,1.61 -2.59,0 -4.9,-0.5 -6.81,-1.49 -1.91,-1 -3.39,-2.42 -4.42,-4.28 -1.03,-1.86 -1.6,-4.06 -1.72,-6.62 h 5.69 z"
       id="path8" />
    <path
       class="st1"
       d="m 378.44,250.79 v -39.31 h -10.98 v -5.74 h 28.16 v 5.74 h -10.98 v 39.31 h -6.19 z"
       id="path9" />
    <path
       class="st0"
       d="m 599.08,250.79 v -45.05 h 11.71 c 2.78,0 5.18,0.54 7.21,1.6 2.03,1.07 3.6,2.58 4.73,4.53 1.13,1.95 1.69,4.28 1.69,6.98 0,2.7 -0.56,5.04 -1.69,7.01 -1.13,1.97 -2.7,3.48 -4.73,4.53 -2.03,1.05 -4.43,1.58 -7.21,1.58 h -5.52 v 18.81 h -6.19 z m 6.2,-24.22 h 5.74 c 2.21,0 3.97,-0.67 5.27,-2 1.29,-1.33 1.94,-3.18 1.94,-5.55 0,-2.37 -0.65,-4.17 -1.94,-5.52 -1.3,-1.35 -3.05,-2.03 -5.27,-2.03 h -5.74 v 15.09 z"
       id="path10" />
    <path
       class="st1"
       d="m 439.34,211.27 c 6.68,-2.83 9.4,4.58 9.72,9.8 h 5.75 c -0.37,-8.42 -3.75,-16.62 -13.56,-16.25 -6.67,0.25 -10.29,4.77 -11.98,10.76 -0.74,2.62 -0.5,4.32 -2.18,6.67 -1.51,2.12 -4.6,4.33 -4.12,7.25 0.41,2.52 3.93,4.66 5.07,6.89 0.88,1.72 1.13,4.67 1.88,6.72 1.55,4.2 4.81,7.97 9.53,8.54 0.92,0.11 3.17,0.12 4.08,0 1.59,-0.2 4.13,-1.38 5.39,-2.39 3.78,-3.06 4.7,-8.31 5.16,-12.89 h -5.64 c -0.52,0.39 -0.32,1.09 -0.47,1.68 -1.1,4.31 -2.58,8.96 -8.29,7.52 -4.31,-1.09 -3.96,-7.13 -5.47,-10.08 -1.04,-2.03 -4.68,-4.67 -4.61,-6.88 0.07,-2.24 3.8,-4.71 4.75,-6.99 1.36,-3.28 0.73,-8.54 4.97,-10.33 z"
       id="path11" />
    <path
       class="st0"
       d="m 518.6,208.08 c -0.38,3.93 -0.77,13.24 -2.36,16.28 -1.45,2.79 -3.33,4.08 -2.83,7.64 0.54,3.87 3.47,4.56 2.07,14.16 -0.19,-0.03 -0.67,0.05 -0.72,0 -0.18,-0.17 -0.39,-4.07 -0.54,-4.84 -0.63,-3.24 -1.93,-4.68 -3.37,-7.31 -2.35,-4.29 -0.17,-5.13 1.08,-8.7 0.98,-2.82 0.18,-5.4 0.19,-8.29 h -7.31 c -0.49,0 -0.53,3.76 -0.66,4.36 -0.81,3.81 -7.24,7.68 -7.38,9.86 -0.12,1.93 2.75,3.39 3.83,4.76 2.51,3.19 1.19,6.46 1.2,10.14 h -0.72 c -0.54,-4.19 0.82,-6.99 -2.77,-10.02 -2.37,-2 -7.46,-3.35 -4.42,-7.28 2.51,-3.26 4.74,-5.06 4.87,-10.06 l -0.8,-12.98 h -5.76 c 0.14,5.38 1.62,10.92 0.12,16.24 -1.07,3.79 -5.02,6.19 -3.28,10.67 1.19,3.05 4.08,3.89 5.36,6.36 1.84,3.53 1.51,7.78 2.13,11.61 h 8.37 c 0.27,-4.04 1.88,-9.72 0.56,-13.68 -0.9,-2.69 -3.22,-3.79 -3.09,-5.68 0.2,-2.92 5.89,-6.19 5.42,-9.76 h 0.72 c 0.58,3.21 -1.91,5.05 -3.16,7.48 -1.84,3.6 0.41,4.84 2.1,7.46 2.52,3.91 3.47,9.62 3.7,14.19 h 8.63 c 0.02,-4.03 1.28,-8.57 0.97,-12.54 -0.16,-1.98 -1.87,-4.32 -1.93,-6.11 -0.1,-2.9 3.07,-5.64 3.57,-9.71 l 1.71,-16.52 h -5.16 c -0.53,0 -0.32,1.83 -0.36,2.27 z"
       id="path12" />
    <path
       class="st0"
       d="m 589.33,214.64 c -1.43,-4.96 -6.33,-8.22 -11.38,-8.73 -4.34,-0.44 -13.81,0.02 -13.79,0 l 0.03,11.63 c 0.11,3.35 -3.22,7.29 -3.4,10.45 -0.24,4.38 3.28,7.41 3.28,13.09 l 0.08,9.72 h 6.47 c 0.04,-6.55 0.96,-12.89 -2.86,-19.4 l 5.38,0.06 c 0.49,0 4.64,7.19 5.2,8.2 1.99,3.61 3.69,7.43 5.47,11.14 h 6.95 l -10.32,-19.93 c 7.43,-2.07 10.99,-8.83 8.86,-16.23 z m -12.49,11.39 c -0.5,0.08 -1.22,0.09 -1.88,0.13 -1,0.06 -1.87,0.06 -2.89,0.05 -0.8,0 -1.6,0.01 -2.4,0 -0.61,0 -2.04,-0.02 -2.04,-0.02 l 1.98,-4.71 c 0.68,-1.68 1.02,-3.48 1.02,-5.3 v -4.54 h 5.16 c 0.6,0 2.38,0.36 3.05,0.55 4.12,1.14 5.57,5.57 4.28,9.37 -1.07,3.15 -3.26,3.99 -6.27,4.46 z"
       id="path13" />
    <path
       class="st0"
       d="m 548.64,227.85 c -0.31,-2.15 0.7,-4.34 0.87,-6.42 0.21,-2.55 -0.34,-6.63 -0.72,-9.25 -0.31,-2.13 -0.95,-4.21 -1.17,-6.36 l -10.16,-0.02 c -1.42,4.05 -1.34,8.85 -3.02,12.79 -2.11,4.92 -9.52,7.38 -7.64,13.72 1.04,3.52 3.84,4.02 3.26,8.42 -0.43,3.25 -1.66,6.69 -2.09,9.97 h 5.88 l 0.31,-0.41 c 0.34,-3.64 1.85,-7.65 2.18,-11.2 0.13,-1.37 -0.07,-2.16 -0.45,-3.43 3.19,-0.02 6.8,-0.56 9.96,-0.25 1.48,0.15 1.72,1.42 2.09,2.69 1.17,3.98 1.46,8.56 2.57,12.6 h 6.47 l -3.01,-13.84 c -1.06,-3.27 -4.82,-5.59 -5.32,-9.03 z m -4.45,-6.39 c -0.12,2.61 -1.04,5.29 -0.65,8.01 -0.48,0.02 -0.96,-0.02 -1.44,0 -0.47,0.02 -0.97,-0.04 -1.44,0 -2.28,0.21 -8.62,0.7 -8.63,0.6 -0.41,-3.04 5.79,-5.16 7.24,-7.83 1.65,-3.04 1.55,-7.94 2.6,-11.26 0.11,-0.35 0.13,-0.6 0.59,-0.61 0.33,0 1.21,5.78 1.29,6.36 0.2,1.36 0.5,3.4 0.44,4.74 z"
       id="path14" />
    <path
       class="st1"
       d="m 474.6,226.59 c 0.45,-0.65 0.95,-1.29 1.42,-1.93 l 10.93,-18.85 H 480 c -0.04,0.41 -0.23,0.77 -0.44,1.12 -2.74,4.69 -5.66,10.64 -8.72,14.96 -1.15,1.62 -3.85,4.24 -5.84,4.67 -0.02,0.06 1.39,-1.06 1.7,-1.39 0.62,-0.67 1.51,-2.32 1.52,-4.12 l 0.26,-15.23 h -6.23 v 13.97 c 0,2.62 -3.37,5.08 -4.29,7.43 -0.65,1.67 -0.58,2.93 0.17,4.55 1.05,2.27 4.12,4.17 4.12,6.88 v 12.06 h 6.23 v -10.8 c -0.02,-1.98 -1.24,-3.53 -1.63,-4.17 -0.58,-0.95 -1.92,-2.47 -2.73,-3.65 -0.02,0 2.7,1.99 2.99,2.19 5.93,4.07 8.03,9.46 11.57,15.47 0.17,0.3 0.32,0.61 0.35,0.96 h 7.43 c -3.09,-4.82 -5.62,-10.27 -8.77,-15.02 -0.56,-0.85 -1.11,-1.76 -1.79,-2.52 -1.99,-2.25 -5.32,-3.73 -5.32,-3.71 0,0.06 2.93,-1.29 4.01,-2.86 z"
       id="path15" />
    <path
       class="st1"
       d="m 414.8,227.94 c -0.25,-2.28 1.15,-3.72 1.38,-5.78 0.22,-1.93 -0.61,-6.89 -0.96,-9.02 -0.4,-2.44 -1.15,-4.84 -1.41,-7.31 l -10.16,-0.02 -2.83,12.71 c -0.41,1.86 -1.23,3.61 -2.39,5.12 -1.25,1.63 -2.57,3.22 -3.05,5.25 -0.89,3.75 1.23,6.09 1.02,9.67 -0.24,4.02 -1.62,8.17 -2.24,12.15 h 6.16 l 0.03,-0.41 c 0.36,-3.7 1.9,-7.8 2.18,-11.44 0.1,-1.3 0,-2.22 -0.45,-3.43 h 10.91 c 0,0 3,9.16 3.72,15.28 h 6.47 l -3.17,-14.4 c -1.98,-5.48 -4.85,-5.14 -5.2,-8.38 z m -4.11,-4.33 c -0.13,1.87 -0.9,3.81 -0.32,5.75 -0.01,0.13 -0.13,0.08 -0.16,0.1 h -3.6 c -1.44,0 -2.88,0.02 -4.32,0 -0.53,0 -1.21,0.11 -1.68,-0.12 1.04,-2.7 3.61,-4.71 4.61,-7.39 1.26,-3.35 2.03,-7.82 3.12,-11.59 0,0 0.25,0.02 0.42,0 0.65,4.35 2.21,8.8 1.91,13.25 z"
       id="path16" />
  </g>
</svg>
